<?xml version="1.0" encoding="UTF-8" standalone="no"?>
<!-- Created with Inkscape (http://www.inkscape.org/) -->

<svg
   xmlns:dc="http://purl.org/dc/elements/1.1/"
   xmlns:cc="http://creativecommons.org/ns#"
   xmlns:rdf="http://www.w3.org/1999/02/22-rdf-syntax-ns#"
   xmlns:svg="http://www.w3.org/2000/svg"
   xmlns="http://www.w3.org/2000/svg"
   xmlns:sodipodi="http://sodipodi.sourceforge.net/DTD/sodipodi-0.dtd"
   xmlns:inkscape="http://www.inkscape.org/namespaces/inkscape"
   version="1.1"
   id="svg2"
   xml:space="preserve"
   width="216"
   height="169.33333"
   viewBox="0 0 216 169.33333"
   sodipodi:docname="query.svg"
   inkscape:version="0.92.2 2405546, 2018-03-11"><metadata
     id="metadata8"><rdf:RDF><cc:Work
         rdf:about=""><dc:format>image/svg+xml</dc:format><dc:type
           rdf:resource="http://purl.org/dc/dcmitype/StillImage" /><dc:title /></cc:Work></rdf:RDF></metadata><defs
     id="defs6"><clipPath
       clipPathUnits="userSpaceOnUse"
       id="clipPath20"><path
         d="M 30,50 H 1570 V 1230 H 30 Z"
         id="path18"
         inkscape:connector-curvature="0" /></clipPath></defs><sodipodi:namedview
     pagecolor="#ffffff"
     bordercolor="#666666"
     borderopacity="1"
     objecttolerance="10"
     gridtolerance="10"
     guidetolerance="10"
     inkscape:pageopacity="0"
     inkscape:pageshadow="2"
     inkscape:window-width="1920"
     inkscape:window-height="1017"
     id="namedview4"
     showgrid="false"
     inkscape:zoom="3.9419814"
     inkscape:cx="130.28428"
     inkscape:cy="123.55589"
     inkscape:window-x="0"
     inkscape:window-y="0"
     inkscape:window-maximized="1"
     inkscape:current-layer="g10" /><g
     id="g10"
     inkscape:groupmode="layer"
     inkscape:label="ink_ext_XXXXXX"
     transform="matrix(1.3333333,0,0,-1.3333333,0,169.33333)"
     style="display:inline"><g
       id="g12"
       transform="scale(0.1)"><g
         id="g14"><g
           id="g16"
           clip-path="url(#clipPath20)"><path
             d="m 145.27,705.191 h 676.332 v 516.02 H 145.27 Z"
             style="fill:#fbfbfb;fill-opacity:1;fill-rule:nonzero;stroke:none"
             id="path28"
             inkscape:connector-curvature="0" /><rect
             style="opacity:1;fill:#dcdcdc;fill-opacity:1;stroke:none;stroke-width:3.75;stroke-linecap:round;stroke-linejoin:round;stroke-miterlimit:4;stroke-dasharray:none;stroke-dashoffset:5.47007751;stroke-opacity:1"
             id="rect1208-3-6-7"
             width="88.789062"
             height="706.95898"
             x="586.76196"
             y="-1220.9399"
             transform="scale(1,-1)" /><rect
             style="opacity:1;fill:#dcdcdc;fill-opacity:1;stroke:none;stroke-width:3.75;stroke-linecap:round;stroke-linejoin:round;stroke-miterlimit:4;stroke-dasharray:none;stroke-dashoffset:5.47007751;stroke-opacity:1"
             id="rect1208-3-6"
             width="441.80096"
             height="651.01801"
             x="144.961"
             y="-1220.9399"
             transform="scale(1,-1)" /><rect
             style="opacity:1;fill:#dcdcdc;fill-opacity:1;stroke:none;stroke-width:3.75;stroke-linecap:round;stroke-linejoin:round;stroke-miterlimit:4;stroke-dasharray:none;stroke-dashoffset:5.47007751;stroke-opacity:1"
             id="rect1208-3"
             width="528.2063"
             height="261.44022"
             x="677.45361"
             y="-1220.8505"
             transform="scale(1,-1)" /><rect
             style="opacity:1;fill:#dcdcdc;fill-opacity:1;stroke:none;stroke-width:3.75;stroke-linecap:round;stroke-linejoin:round;stroke-miterlimit:4;stroke-dasharray:none;stroke-dashoffset:5.47007751;stroke-opacity:1"
             id="rect1208"
             width="175.23001"
             height="796.961"
             x="676.87903"
             y="-957.65997"
             transform="scale(1,-1)" /><path
             d="m 145.27,705.191 h 676.332 v 516.02 H 145.27 Z"
             style="fill:none;stroke:#320e25;stroke-width:2.18267989;stroke-linecap:round;stroke-linejoin:round;stroke-miterlimit:4;stroke-dasharray:none;stroke-opacity:1"
             id="path30"
             inkscape:connector-curvature="0" /><path
             d="m 160.039,1221.21 -14.769,-14.73 v -3.75 l 18.519,18.48 z m 43.981,0 -58.75,-58.75 v -3.75 l 62.5,62.5 z m 44.031,0 -102.781,-102.73 v -3.75 l 106.531,106.48 z m 44.019,0 -146.8,-146.76 v -3.75 l 150.55,150.51 z m 43.981,0 -190.781,-190.78 v -3.75 l 194.531,194.53 z m 44.027,0 L 145.27,986.449 v -3.75 l 238.558,238.511 z m 44.024,0 L 145.27,942.422 v -3.75 l 282.582,282.538 z m 43.988,0 -322.82,-322.812 v -3.75 l 326.57,326.562 z m 44.019,0 -366.839,-366.8 v -3.75 l 370.589,370.55 z m 43.981,0 -410.82,-410.819 v -3.75 l 414.57,414.569 z m 44.031,0 L 145.27,766.371 v -3.75 l 458.601,458.589 z m 43.981,0 L 145.27,722.379 v -3.75 l 502.582,502.581 z m 44.019,0 -516.012,-516.011 h 3.75 l 516.02,516.011 z m 44.027,0 -516.019,-516.011 h 3.75 l 516.019,516.011 z m 43.981,0 L 260.16,705.199 h 3.75 l 515.969,516.011 z m 44.031,0 -516.019,-516.011 h 3.75 l 513.711,513.711 v 2.3 z m 1.442,-42.58 L 348.16,705.199 h 3.75 l 469.692,469.681 z m 0,-44.02 -429.454,-429.411 h 3.75 l 425.704,425.661 z m 0,-43.99 -385.43,-385.421 h 3.75 l 381.68,381.681 z m 0,-44.02 -341.403,-341.401 h 3.75 l 337.653,337.651 z m 0,-44.02 L 524.18,705.199 h 3.75 l 293.672,293.629 z m 0,-43.99 -253.403,-253.391 h 3.75 L 821.602,954.84 Z m 0,-44.02 L 612.23,705.199 h 3.75 L 821.602,910.82 Z m 0,-43.98 -165.391,-165.391 h 3.75 L 821.602,866.84 Z m 0,-44.031 -121.372,-121.36 h 3.75 l 117.622,117.61 z m 0,-44.02 -77.34,-77.34 h 3.75 l 73.59,73.59 z m 0,-43.988 -33.364,-33.352 h 3.75 l 29.614,29.602 z"
             style="fill:#000000;fill-opacity:1;fill-rule:nonzero;stroke:none"
             id="path32"
             inkscape:connector-curvature="0" /><path
             d="M 144.961,155.98 V 1225.35"
             style="fill:none;stroke:#000000;stroke-width:1.76794004;stroke-linecap:round;stroke-linejoin:miter;stroke-miterlimit:10;stroke-dasharray:0, 8.83787;stroke-dashoffset:6.44717979;stroke-opacity:1"
             id="path36"
             inkscape:connector-curvature="0" /><path
             d="M 675.23,155.98 V 1225.35"
             style="fill:none;stroke:#000000;stroke-width:1.76794004;stroke-linecap:round;stroke-linejoin:miter;stroke-miterlimit:10;stroke-dasharray:0, 8.83787;stroke-dashoffset:6.44717979;stroke-opacity:1"
             id="path38"
             inkscape:connector-curvature="0" /><path
             d="M 140.551,160.391 H 1563.44"
             style="fill:none;stroke:#000000;stroke-width:1.76794004;stroke-linecap:round;stroke-linejoin:miter;stroke-miterlimit:10;stroke-dasharray:0, 8.83787;stroke-dashoffset:6.44717979;stroke-opacity:1"
             id="path40"
             inkscape:connector-curvature="0" /><path
             d="m 1532.07,150.738 26.95,9.653 -26.95,9.609 10.78,-9.609"
             style="fill:#000000;fill-opacity:1;fill-rule:nonzero;stroke:none"
             id="path42"
             inkscape:connector-curvature="0" /><path
             d="M 144.961,160.391 H 1542.85"
             style="fill:none;stroke:#000000;stroke-width:2.48493004;stroke-linecap:butt;stroke-linejoin:miter;stroke-miterlimit:10;stroke-dasharray:none;stroke-opacity:1"
             id="path44"
             inkscape:connector-curvature="0" /><path
             d="m 144.961,147.969 v 24.84"
             style="fill:none;stroke:#000000;stroke-width:1.24247003;stroke-linecap:butt;stroke-linejoin:miter;stroke-miterlimit:10;stroke-dasharray:none;stroke-opacity:1"
             id="path46"
             inkscape:connector-curvature="0" /><path
             d="m 233.359,147.969 v 24.84"
             style="fill:none;stroke:#000000;stroke-width:1.24247003;stroke-linecap:butt;stroke-linejoin:miter;stroke-miterlimit:10;stroke-dasharray:none;stroke-opacity:1"
             id="path48"
             inkscape:connector-curvature="0" /><path
             d="m 321.719,147.969 v 24.84"
             style="fill:none;stroke:#000000;stroke-width:1.24247003;stroke-linecap:butt;stroke-linejoin:miter;stroke-miterlimit:10;stroke-dasharray:none;stroke-opacity:1"
             id="path50"
             inkscape:connector-curvature="0" /><path
             d="m 410.121,147.969 v 24.84"
             style="fill:none;stroke:#000000;stroke-width:1.24247003;stroke-linecap:butt;stroke-linejoin:miter;stroke-miterlimit:10;stroke-dasharray:none;stroke-opacity:1"
             id="path52"
             inkscape:connector-curvature="0" /><path
             d="m 498.48,147.969 v 24.84"
             style="fill:none;stroke:#000000;stroke-width:1.24247003;stroke-linecap:butt;stroke-linejoin:miter;stroke-miterlimit:10;stroke-dasharray:none;stroke-opacity:1"
             id="path54"
             inkscape:connector-curvature="0" /><path
             d="m 586.879,147.969 v 24.84"
             style="fill:none;stroke:#000000;stroke-width:1.24247003;stroke-linecap:butt;stroke-linejoin:miter;stroke-miterlimit:10;stroke-dasharray:none;stroke-opacity:1"
             id="path56"
             inkscape:connector-curvature="0" /><path
             d="m 675.23,147.969 v 24.84"
             style="fill:none;stroke:#000000;stroke-width:1.24247003;stroke-linecap:butt;stroke-linejoin:miter;stroke-miterlimit:10;stroke-dasharray:none;stroke-opacity:1"
             id="path58"
             inkscape:connector-curvature="0" /><path
             d="m 763.629,147.969 v 24.84"
             style="fill:none;stroke:#000000;stroke-width:1.24247003;stroke-linecap:butt;stroke-linejoin:miter;stroke-miterlimit:10;stroke-dasharray:none;stroke-opacity:1"
             id="path60"
             inkscape:connector-curvature="0" /><path
             d="m 851.988,147.969 v 24.84"
             style="fill:none;stroke:#000000;stroke-width:1.24247003;stroke-linecap:butt;stroke-linejoin:miter;stroke-miterlimit:10;stroke-dasharray:none;stroke-opacity:1"
             id="path62"
             inkscape:connector-curvature="0" /><path
             d="m 940.391,147.969 v 24.84"
             style="fill:none;stroke:#000000;stroke-width:1.24247003;stroke-linecap:butt;stroke-linejoin:miter;stroke-miterlimit:10;stroke-dasharray:none;stroke-opacity:1"
             id="path64"
             inkscape:connector-curvature="0" /><path
             d="m 1028.75,147.969 v 24.84"
             style="fill:none;stroke:#000000;stroke-width:1.24247003;stroke-linecap:butt;stroke-linejoin:miter;stroke-miterlimit:10;stroke-dasharray:none;stroke-opacity:1"
             id="path66"
             inkscape:connector-curvature="0" /><path
             d="m 1117.15,147.969 v 24.84"
             style="fill:none;stroke:#000000;stroke-width:1.24247003;stroke-linecap:butt;stroke-linejoin:miter;stroke-miterlimit:10;stroke-dasharray:none;stroke-opacity:1"
             id="path68"
             inkscape:connector-curvature="0" /><path
             d="m 1205.51,147.969 v 24.84"
             style="fill:none;stroke:#000000;stroke-width:1.24247003;stroke-linecap:butt;stroke-linejoin:miter;stroke-miterlimit:10;stroke-dasharray:none;stroke-opacity:1"
             id="path70"
             inkscape:connector-curvature="0" /><path
             d="m 1293.91,147.969 v 24.84"
             style="fill:none;stroke:#000000;stroke-width:1.24247003;stroke-linecap:butt;stroke-linejoin:miter;stroke-miterlimit:10;stroke-dasharray:none;stroke-opacity:1"
             id="path72"
             inkscape:connector-curvature="0" /><path
             d="m 1382.27,147.969 v 24.84"
             style="fill:none;stroke:#000000;stroke-width:1.24247003;stroke-linecap:butt;stroke-linejoin:miter;stroke-miterlimit:10;stroke-dasharray:none;stroke-opacity:1"
             id="path74"
             inkscape:connector-curvature="0" /><path
             d="m 1470.66,147.969 v 24.84"
             style="fill:none;stroke:#000000;stroke-width:1.24247003;stroke-linecap:butt;stroke-linejoin:miter;stroke-miterlimit:10;stroke-dasharray:none;stroke-opacity:1"
             id="path76"
             inkscape:connector-curvature="0" /><path
             d="m 144.961,147.969 v 24.84"
             style="fill:none;stroke:#000000;stroke-width:1.24247003;stroke-linecap:butt;stroke-linejoin:miter;stroke-miterlimit:10;stroke-dasharray:none;stroke-opacity:1"
             id="path78"
             inkscape:connector-curvature="0" /><path
             d="m 154.609,1193.98 -9.648,26.96 -9.609,-26.96 9.609,10.79"
             style="fill:#000000;fill-opacity:1;fill-rule:nonzero;stroke:none"
             id="path80"
             inkscape:connector-curvature="0" /><path
             d="M 144.961,160.391 V 1204.77"
             style="fill:none;stroke:#000000;stroke-width:2.48493004;stroke-linecap:butt;stroke-linejoin:miter;stroke-miterlimit:10;stroke-dasharray:none;stroke-opacity:1"
             id="path82"
             inkscape:connector-curvature="0" /><path
             d="m 1532.07,150.738 26.95,9.653 -26.95,9.609 10.78,-9.609"
             style="fill:#000000;fill-opacity:1;fill-rule:nonzero;stroke:none"
             id="path84"
             inkscape:connector-curvature="0" /><path
             d="M 144.961,160.391 H 1542.85"
             style="fill:none;stroke:#000000;stroke-width:2.48493004;stroke-linecap:butt;stroke-linejoin:miter;stroke-miterlimit:10;stroke-dasharray:none;stroke-opacity:1"
             id="path86"
             inkscape:connector-curvature="0" /><path
             d="m 154.609,1193.98 -9.648,26.96 -9.609,-26.96 9.609,10.79"
             style="fill:#000000;fill-opacity:1;fill-rule:nonzero;stroke:none"
             id="path88"
             inkscape:connector-curvature="0" /><path
             d="M 144.961,160.391 V 1204.77"
             style="fill:none;stroke:#000000;stroke-width:2.48493004;stroke-linecap:butt;stroke-linejoin:miter;stroke-miterlimit:10;stroke-dasharray:none;stroke-opacity:1"
             id="path90"
             inkscape:connector-curvature="0" /><path
             d="m 132.539,160.391 h 24.84"
             style="fill:none;stroke:#000000;stroke-width:1.24247003;stroke-linecap:butt;stroke-linejoin:miter;stroke-miterlimit:10;stroke-dasharray:none;stroke-opacity:1"
             id="path92"
             inkscape:connector-curvature="0" /><path
             d="m 132.539,248.75 h 24.84"
             style="fill:none;stroke:#000000;stroke-width:1.24247003;stroke-linecap:butt;stroke-linejoin:miter;stroke-miterlimit:10;stroke-dasharray:none;stroke-opacity:1"
             id="path94"
             inkscape:connector-curvature="0" /><path
             d="m 132.539,337.148 h 24.84"
             style="fill:none;stroke:#000000;stroke-width:1.24247003;stroke-linecap:butt;stroke-linejoin:miter;stroke-miterlimit:10;stroke-dasharray:none;stroke-opacity:1"
             id="path96"
             inkscape:connector-curvature="0" /><path
             d="m 132.539,425.551 h 24.84"
             style="fill:none;stroke:#000000;stroke-width:1.24247003;stroke-linecap:butt;stroke-linejoin:miter;stroke-miterlimit:10;stroke-dasharray:none;stroke-opacity:1"
             id="path98"
             inkscape:connector-curvature="0" /><path
             d="m 132.539,513.91 h 24.84"
             style="fill:none;stroke:#000000;stroke-width:1.24247003;stroke-linecap:butt;stroke-linejoin:miter;stroke-miterlimit:10;stroke-dasharray:none;stroke-opacity:1"
             id="path100"
             inkscape:connector-curvature="0" /><path
             d="m 132.539,602.27 h 24.84"
             style="fill:none;stroke:#000000;stroke-width:1.24247003;stroke-linecap:butt;stroke-linejoin:miter;stroke-miterlimit:10;stroke-dasharray:none;stroke-opacity:1"
             id="path102"
             inkscape:connector-curvature="0" /><path
             d="m 132.539,690.66 h 24.84"
             style="fill:none;stroke:#000000;stroke-width:1.24247003;stroke-linecap:butt;stroke-linejoin:miter;stroke-miterlimit:10;stroke-dasharray:none;stroke-opacity:1"
             id="path104"
             inkscape:connector-curvature="0" /><path
             d="m 132.539,779.059 h 24.84"
             style="fill:none;stroke:#000000;stroke-width:1.24247003;stroke-linecap:butt;stroke-linejoin:miter;stroke-miterlimit:10;stroke-dasharray:none;stroke-opacity:1"
             id="path106"
             inkscape:connector-curvature="0" /><path
             d="m 132.539,867.422 h 24.84"
             style="fill:none;stroke:#000000;stroke-width:1.24247003;stroke-linecap:butt;stroke-linejoin:miter;stroke-miterlimit:10;stroke-dasharray:none;stroke-opacity:1"
             id="path108"
             inkscape:connector-curvature="0" /><path
             d="m 132.539,955.781 h 24.84"
             style="fill:none;stroke:#000000;stroke-width:1.24247003;stroke-linecap:butt;stroke-linejoin:miter;stroke-miterlimit:10;stroke-dasharray:none;stroke-opacity:1"
             id="path110"
             inkscape:connector-curvature="0" /><path
             d="m 132.539,1044.18 h 24.84"
             style="fill:none;stroke:#000000;stroke-width:1.24247003;stroke-linecap:butt;stroke-linejoin:miter;stroke-miterlimit:10;stroke-dasharray:none;stroke-opacity:1"
             id="path112"
             inkscape:connector-curvature="0" /><path
             d="m 132.539,1132.58 h 24.84"
             style="fill:none;stroke:#000000;stroke-width:1.24247003;stroke-linecap:butt;stroke-linejoin:miter;stroke-miterlimit:10;stroke-dasharray:none;stroke-opacity:1"
             id="path114"
             inkscape:connector-curvature="0" /><path
             d="m 132.539,160.391 h 24.84"
             style="fill:none;stroke:#000000;stroke-width:1.24247003;stroke-linecap:butt;stroke-linejoin:miter;stroke-miterlimit:10;stroke-dasharray:none;stroke-opacity:1"
             id="path116"
             inkscape:connector-curvature="0" /><path
             d="m 154.609,1193.98 -9.648,26.96 -9.609,-26.96 9.609,10.79"
             style="fill:#000000;fill-opacity:1;fill-rule:nonzero;stroke:none"
             id="path118"
             inkscape:connector-curvature="0" /><path
             d="M 144.961,160.391 V 1204.77"
             style="fill:none;stroke:#000000;stroke-width:2.48493004;stroke-linecap:butt;stroke-linejoin:miter;stroke-miterlimit:10;stroke-dasharray:none;stroke-opacity:1"
             id="path120"
             inkscape:connector-curvature="0" /><path
             d="m 1532.07,150.738 26.95,9.653 -26.95,9.609 10.78,-9.609"
             style="fill:#000000;fill-opacity:1;fill-rule:nonzero;stroke:none"
             id="path122"
             inkscape:connector-curvature="0" /><path
             d="M 144.961,160.391 H 1542.85"
             style="fill:none;stroke:#000000;stroke-width:2.48493004;stroke-linecap:butt;stroke-linejoin:miter;stroke-miterlimit:10;stroke-dasharray:none;stroke-opacity:1"
             id="path124"
             inkscape:connector-curvature="0" /><g
             id="g126"
             transform="scale(10)"><text
   transform="matrix(0,1,1,0,7.02148,17.3012)"
   style="font-variant:normal;font-weight:normal;font-size:6.07973003px;font-family:'DejaVu Serif';-inkscape-font-specification:DejaVuSerif;writing-mode:lr-tb;fill:#000000;fill-opacity:1;fill-rule:nonzero;stroke:none"
   id="text130"><tspan
     x="0"
     y="0"
     id="tspan128">y</tspan></text>



<text
   transform="matrix(1,0,0,-1,17.0652,5.50586)"
   style="font-variant:normal;font-weight:normal;font-size:6.07973003px;font-family:'DejaVu Serif';-inkscape-font-specification:DejaVuSerif;writing-mode:lr-tb;fill:#000000;fill-opacity:1;fill-rule:nonzero;stroke:none"
   id="text134"><tspan
     x="0"
     y="0"
     id="tspan132">x</tspan></text>



</g><path
             d="M 675.551,1227.3 V 161.02"
             style="fill:none;stroke:#320e25;stroke-width:13.5;stroke-linecap:butt;stroke-linejoin:miter;stroke-miterlimit:4;stroke-dasharray:none;stroke-opacity:1"
             id="path136"
             inkscape:connector-curvature="0" /><path
             d="M 146.328,513.98 H 674.219"
             style="fill:none;stroke:#320e25;stroke-width:11.25;stroke-linecap:butt;stroke-linejoin:miter;stroke-miterlimit:4;stroke-dasharray:none;stroke-opacity:1"
             id="path138"
             inkscape:connector-curvature="0" /><path
             d="M 676.879,957.66 H 1557.89"
             style="fill:none;stroke:#320e25;stroke-width:11.25;stroke-linecap:butt;stroke-linejoin:miter;stroke-miterlimit:4;stroke-dasharray:none;stroke-opacity:1"
             id="path140"
             inkscape:connector-curvature="0" /><path
             d="M 321.84,512.73 V 161.371"
             style="fill:none;stroke:#320e25;stroke-width:7.5;stroke-linecap:butt;stroke-linejoin:miter;stroke-miterlimit:4;stroke-dasharray:none;stroke-opacity:1"
             id="path142"
             inkscape:connector-curvature="0" /><path
             d="m 1205.66,959.41 v 261.9961"
             style="fill:none;stroke:#320e25;stroke-width:7.5;stroke-linecap:butt;stroke-linejoin:miter;stroke-miterlimit:4;stroke-dasharray:none;stroke-opacity:1"
             id="path144"
             inkscape:connector-curvature="0"
             sodipodi:nodetypes="cc" /><path
             d="M 852.109,957.66 V 160.699"
             style="fill:none;stroke:#320e25;stroke-width:7.5;stroke-linecap:butt;stroke-linejoin:miter;stroke-miterlimit:4;stroke-dasharray:none;stroke-opacity:1"
             id="path146"
             inkscape:connector-curvature="0" /><path
             d="m 1207.42,1132.42 h 353.13"
             style="fill:none;stroke:#320e25;stroke-width:3.75;stroke-linecap:butt;stroke-linejoin:miter;stroke-miterlimit:4;stroke-dasharray:none;stroke-opacity:1"
             id="path148"
             inkscape:connector-curvature="0" /><path
             d="M 586.762,1224.18 V 516.559"
             style="fill:none;stroke:#320e25;stroke-width:7.5;stroke-linecap:butt;stroke-linejoin:miter;stroke-miterlimit:4;stroke-dasharray:none;stroke-opacity:1"
             id="path150"
             inkscape:connector-curvature="0" /><g
             id="g152"
             transform="scale(10)"><text
   transform="matrix(1,0,0,-1,13.2035,10.7176)"
   style="font-variant:normal;font-weight:normal;font-size:3.36722994px;font-family:'DejaVu Serif';-inkscape-font-specification:DejaVuSerif;writing-mode:lr-tb;fill:#000000;fill-opacity:1;fill-rule:nonzero;stroke:none"
   id="text198"><tspan
     x="0"
     y="0"
     id="tspan154">0</tspan><tspan
     x="8.9207001 17.823824"
     y="0.0238281"
     sodipodi:role="line"
     id="tspan156">12</tspan><tspan
     x="26.659401"
     y="0"
     id="tspan158">3</tspan><tspan
     x="35.583229"
     y="0.0238281"
     id="tspan160">4</tspan><tspan
     x="44.42503"
     y="-0.022265701"
     id="tspan162">5</tspan><tspan
     x="53.319561 62.192211 71.101967 79.994926 87.709381 89.850945"
     y="-1e-07"
     sodipodi:role="line"
     id="tspan164">678910</tspan><tspan
     x="96.727364 98.868919 105.53947 107.68103"
     y="0.023828"
     sodipodi:role="line"
     id="tspan166">1112</tspan><tspan
     x="114.38866 116.53022"
     y="-1e-07"
     sodipodi:role="line"
     id="tspan168">13</tspan><tspan
     x="123.23632 125.37788"
     y="0.023828"
     sodipodi:role="line"
     id="tspan170">14</tspan><tspan
     x="132.16913 134.31068"
     y="-1e-07"
     sodipodi:role="line"
     id="tspan172">15</tspan><tspan
     x="-3.2318699"
     y="-4.5472703"
     id="tspan174">0</tspan><tspan
     x="-3.1990576"
     y="-13.35118"
     id="tspan176">1</tspan><tspan
     x="-3.18187"
     y="-22.17931"
     id="tspan178">2</tspan><tspan
     x="-3.236167"
     y="-31.03087"
     id="tspan180">3</tspan><tspan
     x="-3.1998389"
     y="-39.834782"
     id="tspan182">4</tspan><tspan
     x="-3.2459326"
     y="-48.708611"
     id="tspan184">5</tspan><tspan
     x="-3.2392919"
     y="-57.514469"
     id="tspan186">6</tspan><tspan
     x="-3.2525733"
     y="-66.340637"
     id="tspan188">7</tspan><tspan
     x="-3.2318702"
     y="-75.169937"
     id="tspan190">8</tspan><tspan
     x="-3.2252295"
     y="-83.997673"
     id="tspan192">9</tspan><tspan
     x="-4.3982797 -2.2567213"
     y="-92.825798"
     sodipodi:role="line"
     id="tspan194">10</tspan><tspan
     x="-4.2709355 -2.1293774"
     y="-101.62971"
     sodipodi:role="line"
     id="tspan196">11</tspan></text>



</g><path
             d="m 418.949,513.91 c 0,4.879 -3.949,8.82 -8.828,8.82 -4.891,0 -8.871,-3.941 -8.871,-8.82 0,-4.89 3.98,-8.832 8.871,-8.832 4.879,0 8.828,3.942 8.828,8.832"
             style="fill:#000000;fill-opacity:1;fill-rule:nonzero;stroke:none"
             id="path200"
             inkscape:connector-curvature="0" /><path
             d="m 595.699,602.27 c 0,4.878 -3.937,8.859 -8.82,8.859 -4.891,0 -8.828,-3.981 -8.828,-8.859 0,-4.848 3.937,-8.829 8.828,-8.829 4.883,0 8.82,3.981 8.82,8.829"
             style="fill:#000000;fill-opacity:1;fill-rule:nonzero;stroke:none"
             id="path202"
             inkscape:connector-curvature="0" /><path
             d="m 695.92152,690.65466 c 0,11.42607 -9.30018,20.62346 -20.72626,20.62346 -11.39571,0 -20.60478,-9.19739 -20.60478,-20.62346 0,-11.39805 9.20907,-20.60478 20.60478,-20.60478 11.42608,0 20.72626,9.20673 20.72626,20.60478"
             style="fill:#000000;fill-opacity:1;fill-rule:nonzero;stroke:none;stroke-width:2.33614302"
             id="path204"
             inkscape:connector-curvature="0" /><path
             d="m 1040.9359,957.45602 c 0,6.73332 -5.4512,12.237 -12.1859,12.237 -6.7347,0 -12.1859,-5.50368 -12.1859,-12.237 0,-6.6795 5.4512,-12.1887 12.1859,-12.1887 6.7347,0 12.1859,5.5092 12.1859,12.1887"
             style="fill:#000000;fill-opacity:1;fill-rule:nonzero;stroke:none;stroke-width:1.38006067"
             id="path206"
             inkscape:connector-curvature="0" /><path
             d="m 1214.34,1044.18 c 0,4.88 -3.95,8.83 -8.83,8.83 -4.89,0 -8.83,-3.95 -8.83,-8.83 0,-4.88 3.94,-8.83 8.83,-8.83 4.88,0 8.83,3.95 8.83,8.83"
             style="fill:#000000;fill-opacity:1;fill-rule:nonzero;stroke:none"
             id="path208"
             inkscape:connector-curvature="0" /><path
             d="m 1479.49,1132.58 c 0,4.84 -3.94,8.83 -8.83,8.83 -4.88,0 -8.86,-3.99 -8.86,-8.83 0,-4.88 3.98,-8.87 8.86,-8.87 4.89,0 8.83,3.99 8.83,8.87"
             style="fill:#000000;fill-opacity:1;fill-rule:nonzero;stroke:none"
             id="path210"
             inkscape:connector-curvature="0" /><path
             d="m 331.051,303.828 c 0,4.844 -3.942,8.832 -8.821,8.832 -4.89,0 -8.832,-3.988 -8.832,-8.832 0,-4.879 3.942,-8.867 8.832,-8.867 4.879,0 8.821,3.988 8.821,8.867"
             style="fill:#000000;fill-opacity:1;fill-rule:nonzero;stroke:none"
             id="path212"
             inkscape:connector-curvature="0" /><path
             d="m 507.191,570.859 c 0,4.879 -3.953,8.871 -8.832,8.871 -4.879,0 -8.828,-3.992 -8.828,-8.871 0,-4.879 3.949,-8.828 8.828,-8.828 4.879,0 8.832,3.949 8.832,8.828"
             style="fill:#000000;fill-opacity:1;fill-rule:nonzero;stroke:none"
             id="path214"
             inkscape:connector-curvature="0" /><path
             d="m 361.371,438.281 c 0,4.879 -3.992,8.828 -8.871,8.828 -4.84,0 -8.828,-3.949 -8.828,-8.828 0,-4.883 3.988,-8.832 8.828,-8.832 4.879,0 8.871,3.949 8.871,8.832"
             style="fill:#000000;fill-opacity:1;fill-rule:nonzero;stroke:none"
             id="path216"
             inkscape:connector-curvature="0" /><path
             d="m 262.891,226.172 c 0,4.848 -3.981,8.828 -8.871,8.828 -4.879,0 -8.821,-3.98 -8.821,-8.828 0,-4.883 3.942,-8.871 8.821,-8.871 4.89,0 8.871,3.988 8.871,8.871"
             style="fill:#000000;fill-opacity:1;fill-rule:nonzero;stroke:none"
             id="path218"
             inkscape:connector-curvature="0" /><path
             d="m 719.34,750.23 c 0,4.891 -3.949,8.872 -8.828,8.872 -4.891,0 -8.871,-3.981 -8.871,-8.872 0,-4.878 3.98,-8.82 8.871,-8.82 4.879,0 8.828,3.942 8.828,8.82"
             style="fill:#000000;fill-opacity:1;fill-rule:nonzero;stroke:none"
             id="path220"
             inkscape:connector-curvature="0" /><path
             d="m 937.148,814.77 c 0,4.839 -3.949,8.82 -8.828,8.82 -4.879,0 -8.871,-3.981 -8.871,-8.82 0,-4.891 3.992,-8.872 8.871,-8.872 4.879,0 8.828,3.981 8.828,8.872"
             style="fill:#000000;fill-opacity:1;fill-rule:nonzero;stroke:none"
             id="path222"
             inkscape:connector-curvature="0" /><path
             d="m 985.391,909.922 c 0,4.848 -3.942,8.828 -8.832,8.828 -4.879,0 -8.86,-3.98 -8.86,-8.828 0,-4.883 3.981,-8.871 8.86,-8.871 4.89,0 8.832,3.988 8.832,8.871"
             style="fill:#000000;fill-opacity:1;fill-rule:nonzero;stroke:none"
             id="path224"
             inkscape:connector-curvature="0" /><path
             d="m 1136.02,993.238 c 0,4.883 -3.95,8.832 -8.83,8.832 -4.89,0 -8.83,-3.949 -8.83,-8.832 0,-4.879 3.94,-8.828 8.83,-8.828 4.88,0 8.83,3.949 8.83,8.828"
             style="fill:#000000;fill-opacity:1;fill-rule:nonzero;stroke:none"
             id="path226"
             inkscape:connector-curvature="0" /><path
             d="m 1406.88,1087.93 c 0,4.88 -3.99,8.87 -8.87,8.87 -4.85,0 -8.83,-3.99 -8.83,-8.87 0,-4.88 3.98,-8.83 8.83,-8.83 4.88,0 8.87,3.95 8.87,8.83"
             style="fill:#000000;fill-opacity:1;fill-rule:nonzero;stroke:none"
             id="path228"
             inkscape:connector-curvature="0" /><path
             d="M 146.051,226.172 H 321.762"
             style="fill:none;stroke:#000000;stroke-width:3.75;stroke-linecap:butt;stroke-linejoin:miter;stroke-miterlimit:4;stroke-dasharray:none;stroke-opacity:1"
             id="path230"
             inkscape:connector-curvature="0" /><path
             d="M 323.16,438.281 H 674.488"
             style="fill:none;stroke:#000000;stroke-width:3.75;stroke-linecap:butt;stroke-linejoin:miter;stroke-miterlimit:4;stroke-dasharray:none;stroke-opacity:1"
             id="path232"
             inkscape:connector-curvature="0" /><path
             d="M 588.32,569.922 H 145.121"
             style="fill:none;stroke:#000000;stroke-width:3.75;stroke-linecap:butt;stroke-linejoin:miter;stroke-miterlimit:4;stroke-dasharray:none;stroke-opacity:1"
             id="path234"
             inkscape:connector-curvature="0" /><path
             d="M 676.41,750.82 H 851.602"
             style="fill:none;stroke:#000000;stroke-width:3.75;stroke-linecap:butt;stroke-linejoin:miter;stroke-miterlimit:4;stroke-dasharray:none;stroke-opacity:1"
             id="path236"
             inkscape:connector-curvature="0" /><path
             d="M 852.109,815.199 H 1559.02"
             style="fill:none;stroke:#000000;stroke-width:3.75;stroke-linecap:butt;stroke-linejoin:miter;stroke-miterlimit:4;stroke-dasharray:none;stroke-opacity:1"
             id="path238"
             inkscape:connector-curvature="0" /><path
             d="M 976.602,956.289 V 815.199"
             style="fill:none;stroke:#000000;stroke-width:2.25;stroke-linecap:butt;stroke-linejoin:miter;stroke-miterlimit:4;stroke-dasharray:none;stroke-opacity:1"
             id="path240"
             inkscape:connector-curvature="0" /><path
             d="M 675.039,993.238 H 1205.23"
             style="fill:none;stroke:#320e25;stroke-width:3.75;stroke-linecap:butt;stroke-linejoin:miter;stroke-miterlimit:4;stroke-dasharray:none;stroke-opacity:1"
             id="path242"
             inkscape:connector-curvature="0" /><path
             d="m 264.301,378.051 c 0,4.879 -3.949,8.828 -8.832,8.828 -4.879,0 -8.867,-3.949 -8.867,-8.828 0,-4.891 3.988,-8.871 8.867,-8.871 4.883,0 8.832,3.98 8.832,8.871"
             style="fill:#000000;fill-opacity:1;fill-rule:nonzero;stroke:none"
             id="path244"
             inkscape:connector-curvature="0" /><path
             d="m 811.719,558.828 c 0,4.883 -3.949,8.871 -8.828,8.871 -4.879,0 -8.832,-3.988 -8.832,-8.871 0,-4.879 3.953,-8.828 8.832,-8.828 4.879,0 8.828,3.949 8.828,8.828"
             style="fill:#000000;fill-opacity:1;fill-rule:nonzero;stroke:none"
             id="path246"
             inkscape:connector-curvature="0" /><path
             d="m 474.57,470.43 c 0,4.879 -3.98,8.871 -8.871,8.871 -4.84,0 -8.82,-3.992 -8.82,-8.871 0,-4.879 3.98,-8.828 8.82,-8.828 4.891,0 8.871,3.949 8.871,8.828"
             style="fill:#000000;fill-opacity:1;fill-rule:nonzero;stroke:none"
             id="path248"
             inkscape:connector-curvature="0" /><path
             d="m 759.801,916.09 c 0,4.89 -3.942,8.832 -8.821,8.832 -4.89,0 -8.832,-3.942 -8.832,-8.832 0,-4.879 3.942,-8.82 8.832,-8.82 4.879,0 8.821,3.941 8.821,8.82"
             style="fill:#000000;fill-opacity:1;fill-rule:nonzero;stroke:none"
             id="path250"
             inkscape:connector-curvature="0" /><path
             d="m 901.801,931.48 c 0,4.891 -3.949,8.872 -8.832,8.872 -4.879,0 -8.867,-3.981 -8.867,-8.872 0,-4.878 3.988,-8.82 8.867,-8.82 4.883,0 8.832,3.942 8.832,8.82"
             style="fill:#000000;fill-opacity:1;fill-rule:nonzero;stroke:none"
             id="path252"
             inkscape:connector-curvature="0" /><path
             d="m 1345.08,1012.85 c 0,4.88 -3.95,8.83 -8.83,8.83 -4.88,0 -8.83,-3.95 -8.83,-8.83 0,-4.88 3.95,-8.83 8.83,-8.83 4.88,0 8.83,3.95 8.83,8.83"
             style="fill:#000000;fill-opacity:1;fill-rule:nonzero;stroke:none"
             id="path254"
             inkscape:connector-curvature="0" /><path
             d="m 1350.43,1178.91 c 0,4.88 -3.95,8.86 -8.83,8.86 -4.88,0 -8.83,-3.98 -8.83,-8.86 0,-4.85 3.95,-8.83 8.83,-8.83 4.88,0 8.83,3.98 8.83,8.83"
             style="fill:#000000;fill-opacity:1;fill-rule:nonzero;stroke:none"
             id="path256"
             inkscape:connector-curvature="0" /><path
             d="m 1180.35,870.898 c 0,4.883 -3.94,8.832 -8.83,8.832 -4.88,0 -8.82,-3.949 -8.82,-8.832 0,-4.878 3.94,-8.867 8.82,-8.867 4.89,0 8.83,3.989 8.83,8.867"
             style="fill:#000000;fill-opacity:1;fill-rule:nonzero;stroke:none"
             id="path258"
             inkscape:connector-curvature="0" /><path
             d="m 581.41,374.02 c 0,4.89 -3.949,8.832 -8.832,8.832 -4.879,0 -8.828,-3.942 -8.828,-8.832 0,-4.879 3.949,-8.86 8.828,-8.86 4.883,0 8.832,3.981 8.832,8.86"
             style="fill:#000000;fill-opacity:1;fill-rule:nonzero;stroke:none"
             id="path260"
             inkscape:connector-curvature="0" /><path
             d="m 1087.15,556.172 c 0,4.879 -3.95,8.828 -8.83,8.828 -4.88,0 -8.83,-3.949 -8.83,-8.828 0,-4.883 3.95,-8.871 8.83,-8.871 4.88,0 8.83,3.988 8.83,8.871"
             style="fill:#000000;fill-opacity:1;fill-rule:nonzero;stroke:none"
             id="path262"
             inkscape:connector-curvature="0" /><path
             d="m 465.699,438.32 v 75.309"
             style="fill:none;stroke:#000000;stroke-width:2.25;stroke-linecap:butt;stroke-linejoin:miter;stroke-miterlimit:4;stroke-dasharray:none;stroke-opacity:1"
             id="path264"
             inkscape:connector-curvature="0" /><path
             d="M 572.852,436.949 V 160.59"
             style="fill:none;stroke:#000000;stroke-width:2.25;stroke-linecap:butt;stroke-linejoin:miter;stroke-miterlimit:4;stroke-dasharray:none;stroke-opacity:1"
             id="path266"
             inkscape:connector-curvature="0" /><path
             d="M 803.199,750.352 V 160.199"
             style="fill:none;stroke:#000000;stroke-width:2.25;stroke-linecap:butt;stroke-linejoin:miter;stroke-miterlimit:4;stroke-dasharray:none;stroke-opacity:1"
             id="path268"
             inkscape:connector-curvature="0" /><path
             d="M 1077.77,815.98 V 159.73"
             style="fill:none;stroke:#000000;stroke-width:2.25;stroke-linecap:butt;stroke-linejoin:miter;stroke-miterlimit:4;stroke-dasharray:none;stroke-opacity:1"
             id="path270"
             inkscape:connector-curvature="0" /><path
             d="m 977.5,870.898 h 581.09"
             style="fill:none;stroke:#000000;stroke-width:0.75;stroke-linecap:butt;stroke-linejoin:miter;stroke-miterlimit:4;stroke-dasharray:none;stroke-opacity:1"
             id="path272"
             inkscape:connector-curvature="0" /><path
             d="M 750.66,752.191 V 957.539"
             style="fill:none;stroke:#000000;stroke-width:2.25;stroke-linecap:butt;stroke-linejoin:miter;stroke-miterlimit:4;stroke-dasharray:none;stroke-opacity:1"
             id="path274"
             inkscape:connector-curvature="0" /><path
             d="M 853.121,931.48 H 976.328"
             style="fill:none;stroke:#000000;stroke-width:0.75;stroke-linecap:butt;stroke-linejoin:miter;stroke-miterlimit:4;stroke-dasharray:none;stroke-opacity:1"
             id="path276"
             inkscape:connector-curvature="0" /><path
             d="m 1341.48,1134.34 v 86.17"
             style="fill:none;stroke:#000000;stroke-width:2.25;stroke-linecap:butt;stroke-linejoin:miter;stroke-miterlimit:4;stroke-dasharray:none;stroke-opacity:1"
             id="path278"
             inkscape:connector-curvature="0" /><path
             d="M 1398.44,1130.55 V 956.289"
             style="fill:none;stroke:#000000;stroke-width:2.25;stroke-linecap:butt;stroke-linejoin:miter;stroke-miterlimit:4;stroke-dasharray:none;stroke-opacity:1"
             id="path280"
             inkscape:connector-curvature="0" /><path
             d="M 1397.07,1012.54 H 1205.78"
             style="fill:none;stroke:#000000;stroke-width:0.75;stroke-linecap:butt;stroke-linejoin:miter;stroke-miterlimit:4;stroke-dasharray:none;stroke-opacity:1"
             id="path282"
             inkscape:connector-curvature="0" /><path
             d="M 255.121,512.621 V 227.379"
             style="fill:none;stroke:#000000;stroke-width:2.25;stroke-linecap:butt;stroke-linejoin:miter;stroke-miterlimit:4;stroke-dasharray:none;stroke-opacity:1"
             id="path284"
             inkscape:connector-curvature="0" /><path
             d="m 810.16,716.762 21.641,-23.641"
             style="fill:none;stroke:#000000;stroke-width:5.05919981;stroke-linecap:round;stroke-linejoin:round;stroke-miterlimit:4;stroke-dasharray:none;stroke-opacity:1"
             id="path286"
             inkscape:connector-curvature="0" /><path
             d="M 832.109,716.719 810.469,693.09"
             style="fill:none;stroke:#000000;stroke-width:5.05919981;stroke-linecap:round;stroke-linejoin:round;stroke-miterlimit:4;stroke-dasharray:none;stroke-opacity:1"
             id="path288"
             inkscape:connector-curvature="0" /><path
             d="m 861.41,777.809 c 0,4.851 -3.988,8.832 -8.871,8.832 -4.879,0 -8.828,-3.981 -8.828,-8.832 0,-4.879 3.949,-8.86 8.828,-8.86 4.883,0 8.871,3.981 8.871,8.86"
             style="fill:#000000;fill-opacity:1;fill-rule:nonzero;stroke:none"
             id="path290"
             inkscape:connector-curvature="0" /><rect
             style="opacity:1;fill:#c8c8c8;fill-opacity:1;stroke:none;stroke-width:3.75;stroke-linecap:round;stroke-linejoin:round;stroke-miterlimit:4;stroke-dasharray:none;stroke-dashoffset:5.47007751;stroke-opacity:1"
             id="rect1255"
             width="1.4648438e-06"
             height="2.4414063e-05"
             x="144.961"
             y="-1225.35"
             transform="scale(1,-1)" /></g></g></g><path
       d="M 155.902,15.598011 V 122.535"
       style="display:inline;fill:none;stroke:#000000;stroke-width:0.17679401;stroke-linecap:round;stroke-linejoin:miter;stroke-miterlimit:10;stroke-dasharray:0, 0.883787;stroke-dashoffset:6.44717979;stroke-opacity:1"
       id="path320-3"
       inkscape:connector-curvature="0" /><path
       d="M 14.0551,122.094 H 156.344"
       style="display:inline;fill:none;stroke:#000000;stroke-width:0.17679401;stroke-linecap:round;stroke-linejoin:miter;stroke-miterlimit:10;stroke-dasharray:0, 0.883787;stroke-dashoffset:6.44717979;stroke-opacity:1"
       id="path344-2"
       inkscape:connector-curvature="0" /></g><g
     inkscape:groupmode="layer"
     id="layer1"
     inkscape:label="Grid"
     style="display:none"><path
       d="M 31.114532,148.53599 V 5.9533296"
       style="fill:none;stroke:#000000;stroke-width:0.23572533;stroke-linecap:round;stroke-linejoin:miter;stroke-miterlimit:10;stroke-dasharray:0, 1.17838264;stroke-dashoffset:6.44717979;stroke-opacity:1"
       id="path292-3"
       inkscape:connector-curvature="0" /><path
       d="M 42.895865,148.53599 V 5.9533296"
       style="fill:none;stroke:#000000;stroke-width:0.23572533;stroke-linecap:round;stroke-linejoin:miter;stroke-miterlimit:10;stroke-dasharray:0, 1.17838264;stroke-dashoffset:6.44717979;stroke-opacity:1"
       id="path294-6"
       inkscape:connector-curvature="0" /><path
       d="M 54.682798,148.53599 V 5.9533296"
       style="fill:none;stroke:#000000;stroke-width:0.23572533;stroke-linecap:round;stroke-linejoin:miter;stroke-miterlimit:10;stroke-dasharray:0, 1.17838264;stroke-dashoffset:6.44717979;stroke-opacity:1"
       id="path296-7"
       inkscape:connector-curvature="0" /><path
       d="M 66.463998,148.53599 V 5.9533296"
       style="fill:none;stroke:#000000;stroke-width:0.23572533;stroke-linecap:round;stroke-linejoin:miter;stroke-miterlimit:10;stroke-dasharray:0, 1.17838264;stroke-dashoffset:6.44717979;stroke-opacity:1"
       id="path298-5"
       inkscape:connector-curvature="0" /><path
       d="M 78.250531,148.53599 V 5.9533296"
       style="fill:none;stroke:#000000;stroke-width:0.23572533;stroke-linecap:round;stroke-linejoin:miter;stroke-miterlimit:10;stroke-dasharray:0, 1.17838264;stroke-dashoffset:6.44717979;stroke-opacity:1"
       id="path300-3"
       inkscape:connector-curvature="0" /><path
       d="M 101.8172,148.53599 V 5.9533296"
       style="fill:none;stroke:#000000;stroke-width:0.23572533;stroke-linecap:round;stroke-linejoin:miter;stroke-miterlimit:10;stroke-dasharray:0, 1.17838264;stroke-dashoffset:6.44717979;stroke-opacity:1"
       id="path302-5"
       inkscape:connector-curvature="0" /><path
       d="M 113.5984,148.53599 V 5.9533296"
       style="fill:none;stroke:#000000;stroke-width:0.23572533;stroke-linecap:round;stroke-linejoin:miter;stroke-miterlimit:10;stroke-dasharray:0, 1.17838264;stroke-dashoffset:6.44717979;stroke-opacity:1"
       id="path304-6"
       inkscape:connector-curvature="0" /><path
       d="M 125.38546,148.53599 V 5.9533296"
       style="fill:none;stroke:#000000;stroke-width:0.23572533;stroke-linecap:round;stroke-linejoin:miter;stroke-miterlimit:10;stroke-dasharray:0, 1.17838264;stroke-dashoffset:6.44717979;stroke-opacity:1"
       id="path306-2"
       inkscape:connector-curvature="0" /><path
       d="M 137.16666,148.53599 V 5.9533296"
       style="fill:none;stroke:#000000;stroke-width:0.23572533;stroke-linecap:round;stroke-linejoin:miter;stroke-miterlimit:10;stroke-dasharray:0, 1.17838264;stroke-dashoffset:6.44717979;stroke-opacity:1"
       id="path308-9"
       inkscape:connector-curvature="0" /><path
       d="M 148.95333,148.53599 V 5.9533296"
       style="fill:none;stroke:#000000;stroke-width:0.23572533;stroke-linecap:round;stroke-linejoin:miter;stroke-miterlimit:10;stroke-dasharray:0, 1.17838264;stroke-dashoffset:6.44717979;stroke-opacity:1"
       id="path310-1"
       inkscape:connector-curvature="0" /><path
       d="m 160.73466,148.53599 0.02,-141.9827271"
       style="fill:none;stroke:#000000;stroke-width:0.23572533;stroke-linecap:round;stroke-linejoin:miter;stroke-miterlimit:10;stroke-dasharray:0, 1.17838264;stroke-dashoffset:6.44717979;stroke-opacity:1"
       id="path312-2"
       inkscape:connector-curvature="0"
       sodipodi:nodetypes="cc" /><path
       d="M 172.52133,148.53599 V 5.9533296"
       style="fill:none;stroke:#000000;stroke-width:0.23572533;stroke-linecap:round;stroke-linejoin:miter;stroke-miterlimit:10;stroke-dasharray:0, 1.17838264;stroke-dashoffset:6.44717979;stroke-opacity:1"
       id="path314-7"
       inkscape:connector-curvature="0" /><path
       d="M 184.30266,148.53599 V 5.9533296"
       style="fill:none;stroke:#000000;stroke-width:0.23572533;stroke-linecap:round;stroke-linejoin:miter;stroke-miterlimit:10;stroke-dasharray:0, 1.17838264;stroke-dashoffset:6.44717979;stroke-opacity:1"
       id="path316-0"
       inkscape:connector-curvature="0" /><path
       d="M 196.08799,148.53599 V 5.9533296"
       style="fill:none;stroke:#000000;stroke-width:0.23572533;stroke-linecap:round;stroke-linejoin:miter;stroke-miterlimit:10;stroke-dasharray:0, 1.17838264;stroke-dashoffset:6.44717979;stroke-opacity:1"
       id="path318-9"
       inkscape:connector-curvature="0" /><path
       d="M 18.740133,136.16666 H 208.45866"
       style="fill:none;stroke:#000000;stroke-width:0.23572533;stroke-linecap:round;stroke-linejoin:miter;stroke-miterlimit:10;stroke-dasharray:0, 1.17838264;stroke-dashoffset:6.44717979;stroke-opacity:1"
       id="path322-6"
       inkscape:connector-curvature="0" /><path
       d="M 18.740133,124.38026 H 208.45866"
       style="fill:none;stroke:#000000;stroke-width:0.23572533;stroke-linecap:round;stroke-linejoin:miter;stroke-miterlimit:10;stroke-dasharray:0, 1.17838264;stroke-dashoffset:6.44717979;stroke-opacity:1"
       id="path324-0"
       inkscape:connector-curvature="0" /><path
       d="M 18.740133,112.5932 H 208.45866"
       style="fill:none;stroke:#000000;stroke-width:0.23572533;stroke-linecap:round;stroke-linejoin:miter;stroke-miterlimit:10;stroke-dasharray:0, 1.17838264;stroke-dashoffset:6.44717979;stroke-opacity:1"
       id="path326-6"
       inkscape:connector-curvature="0" /><path
       d="M 18.740133,100.81199 H 208.45866"
       style="fill:none;stroke:#000000;stroke-width:0.23572533;stroke-linecap:round;stroke-linejoin:miter;stroke-miterlimit:10;stroke-dasharray:0, 1.17838264;stroke-dashoffset:6.44717979;stroke-opacity:1"
       id="path328-2"
       inkscape:connector-curvature="0" /><path
       d="M 18.740133,89.030661 H 208.45866"
       style="fill:none;stroke:#000000;stroke-width:0.23572533;stroke-linecap:round;stroke-linejoin:miter;stroke-miterlimit:10;stroke-dasharray:0, 1.17838264;stroke-dashoffset:6.44717979;stroke-opacity:1"
       id="path330-6"
       inkscape:connector-curvature="0" /><path
       d="M 18.740133,77.245328 H 208.45866"
       style="fill:none;stroke:#000000;stroke-width:0.23572533;stroke-linecap:round;stroke-linejoin:miter;stroke-miterlimit:10;stroke-dasharray:0, 1.17838264;stroke-dashoffset:6.44717979;stroke-opacity:1"
       id="path332-1"
       inkscape:connector-curvature="0" /><path
       d="M 18.740133,65.458795 H 208.45866"
       style="fill:none;stroke:#000000;stroke-width:0.23572533;stroke-linecap:round;stroke-linejoin:miter;stroke-miterlimit:10;stroke-dasharray:0, 1.17838264;stroke-dashoffset:6.44717979;stroke-opacity:1"
       id="path334-8"
       inkscape:connector-curvature="0" /><path
       d="M 18.740133,53.677061 H 208.45866"
       style="fill:none;stroke:#000000;stroke-width:0.23572533;stroke-linecap:round;stroke-linejoin:miter;stroke-miterlimit:10;stroke-dasharray:0, 1.17838264;stroke-dashoffset:6.44717979;stroke-opacity:1"
       id="path336-7"
       inkscape:connector-curvature="0" /><path
       d="M 18.740133,41.895862 H 208.45866"
       style="fill:none;stroke:#000000;stroke-width:0.23599999;stroke-linecap:round;stroke-linejoin:miter;stroke-miterlimit:10;stroke-dasharray:0, 1.17975569;stroke-dashoffset:6.45469189;stroke-opacity:1"
       id="path338-9"
       inkscape:connector-curvature="0" /><path
       d="M 18.740133,30.109329 H 208.45866"
       style="fill:none;stroke:#000000;stroke-width:0.23572533;stroke-linecap:round;stroke-linejoin:miter;stroke-miterlimit:10;stroke-dasharray:0, 1.17838264;stroke-dashoffset:6.44717979;stroke-opacity:1"
       id="path340-2"
       inkscape:connector-curvature="0" /><path
       d="M 18.740133,18.322662 H 208.45866"
       style="fill:none;stroke:#000000;stroke-width:0.23572533;stroke-linecap:round;stroke-linejoin:miter;stroke-miterlimit:10;stroke-dasharray:0, 1.17838264;stroke-dashoffset:6.44717979;stroke-opacity:1"
       id="path342-0"
       inkscape:connector-curvature="0" /></g></svg>